<svg width="16" height="16" viewBox="0 0 16 16" fill="none" xmlns="http://www.w3.org/2000/svg">
<g clip-path="url(#clip0_36_470)">
<path d="M8 15C11.866 15 15 11.866 15 8C15 4.13401 11.866 1 8 1C4.13401 1 1 4.13401 1 8C1 11.866 4.13401 15 8 15Z" stroke="#333333"/>
<path d="M4 6C4.24928 6 6.75787 4.5 6.75787 4.5H8.00429H9.25071C9.25071 4.5 11.7507 6 12 6" stroke="#333333"/>
<path d="M4.01577 5.39307L4.01576 7.1783L5.76075 7.47584V11.9388" stroke="#333333"/>
<path d="M11.9842 5.39307V7.1783L10.2393 7.47584L10.2478 11.9388" stroke="#333333"/>
<path d="M5.51144 11.4385H10.4971" stroke="#333333"/>
<path d="M6.50859 4.5C6.50859 4.5 7.00716 6.28522 8.00429 6.28522C9.00142 6.28522 9.49999 4.5 9.49999 4.5" stroke="#333333"/>
</g>
<defs>
<clipPath id="clip0_36_470">
<rect width="16" height="16" fill="white"/>
</clipPath>
</defs>
</svg>
