<svg width="16" height="16" viewBox="0 0 16 16" fill="none" xmlns="http://www.w3.org/2000/svg">
<g clip-path="url(#clip0_56_446)">
<path d="M8.42874 3.25733L9.76117 1.03662L13.1965 1.46603L14.5 3.63857V6.3207L8.0145 14.196L1.93879 6.25078L1.05634 4.04466L2.34556 1.89596L5.35444 0.606445L7.61588 3.32017L8.06655 3.86097L8.42874 3.25733Z" fill="white" stroke="white"/>
<path d="M7.9 3.0948C6.6998 -2.52108 -2.59121 1.90389 1.76035 7.60175C6.11191 13.2996 8.40001 15.4908 8.40001 15.4908" stroke="white"/>
<path d="M7.89414 3.0948C9.09435 -2.52108 18.7304 1.90389 14.3788 7.60175C10.0273 13.2996 7.70001 15.5 7.70001 15.5" stroke="white"/>
<path d="M7.39099 2.70752L8.4043 2.70757L8.38336 3.24079H7.39099V2.70752Z" fill="white"/>
</g>
<defs>
<clipPath id="clip0_56_446">
<rect width="16" height="16" fill="white"/>
</clipPath>
</defs>
</svg>
